M48
; DRILL file {KiCad (5.99.0-10289-g4f191ce2c7)} date Fri Apr 16 01:34:09 2021
; FORMAT={-:-/ absolute / inch / decimal}
; #@! TF.CreationDate,2021-04-16T01:34:09+03:00
; #@! TF.GenerationSoftware,Kicad,Pcbnew,(5.99.0-10289-g4f191ce2c7)
; #@! TF.FileFunction,Plated,1,2,PTH
FMAT,2
INCH
; #@! TA.AperFunction,Plated,PTH,ViaDrill
T1C0.0118
; #@! TA.AperFunction,Plated,PTH,ViaDrill
T2C0.0157
; #@! TA.AperFunction,Plated,PTH,ComponentDrill
T3C0.0236
; #@! TA.AperFunction,Plated,PTH,ComponentDrill
T4C0.0354
; #@! TA.AperFunction,Plated,PTH,ComponentDrill
T5C0.0394
; #@! TA.AperFunction,Plated,PTH,ComponentDrill
T6C0.0512
%
G90
G05
T1
X0.5058Y-2.7185
X0.5156Y-1.9488
X0.5168Y-1.3713
X0.5227Y-3.0165
X0.5629Y-2.5067
X0.5712Y-2.348
X0.5964Y-2.2724
X0.6286Y-2.665
X0.6956Y-2.5539
X0.7034Y-3.0213
X0.7196Y-1.5366
X0.7586Y-1.1413
X0.7842Y-2.0098
X0.9101Y-1.761
X0.931Y-2.2839
X0.9625Y-1.6445
X0.9633Y-1.3087
X0.9897Y-1.5882
X0.994Y-2.3866
X1.2534Y-1.1409
X1.2641Y-2.4217
X1.279Y-2.1902
X1.2798Y-1.6701
X1.2834Y-1.4346
X1.3235Y-2.3264
X1.3255Y-2.1047
X1.3318Y-2.4787
X1.3582Y-1.702
X1.3838Y-1.5473
X1.433Y-2.2039
X1.555Y-1.1433
X1.6432Y-3.215
X1.6464Y-3.011
X1.6495Y-2.2768
X1.733Y-2.8091
X1.7353Y-1.6709
X1.7511Y-2.3071
X1.8416Y-1.9882
X1.8727Y-1.2469
X1.8755Y-2.7402
X1.9094Y-2.2173
X1.916Y-2.9177
X1.9428Y-2.8268
X2.0621Y-1.7413
X2.0633Y-2.1039
X2.0649Y-2.8193
X2.0743Y-3.002
X2.2109Y-1.5874
X2.4196Y-2.2717
X2.4204Y-3.0276
X2.4479Y-2.1988
X2.4743Y-1.4665
X2.4771Y-1.8835
X2.4845Y-2.7811
X2.5015Y-2.1433
X2.5196Y-3.0189
X2.5216Y-3.1201
X2.5314Y-1.439
X2.5503Y-2.2689
X2.5597Y-3.0449
X2.5901Y-2.9807
X2.6515Y-1.715
X2.6582Y-2.3055
X2.6696Y-3.078
X2.6779Y-2.0291
X2.6908Y-2.4539
X2.7082Y-1.1531
X2.7279Y-2.9689
X2.7401Y-2.874
X2.7531Y-2.0823
X2.7534Y-2.167
X2.7566Y-1.2378
X2.7566Y-1.6847
X2.7956Y-2.7339
X2.8011Y-1.3728
X2.8416Y-2.037
X2.842Y-3.0693
X2.8464Y-2.2409
X2.8562Y-1.4307
X2.8574Y-2.8228
X2.8601Y-2.1768
X2.9428Y-1.6953
X3.0082Y-1.5402
X3.0334Y-3.3898
X3.1653Y-1.7803
X3.1885Y-1.6008
X3.2015Y-2.6819
X3.2184Y-2.2728
X3.2223Y-1.3902
X3.2235Y-2.1224
X3.242Y-2.9094
X3.2424Y-2.5362
X3.3405Y-0.8386
X3.392Y-2.0957
X3.4168Y-1.2252
X3.4322Y-1.7646
X3.4353Y-2.5484
X3.4905Y-2.737
X3.505Y-2.2768
X3.505Y-2.3359
X3.5054Y-1.2736
X3.5219Y-1.7989
X3.5747Y-2.5421
X3.6125Y-2.4283
X3.633Y-1.6957
X3.6338Y-3.0831
X3.6349Y-1.5988
X3.7011Y-3.1531
X3.7263Y-3.8008
X3.7353Y-1.0906
X3.9263Y-2.2862
X3.9275Y-3.0283
X3.9385Y-3.913
X3.9542Y-3.7594
X3.9692Y-1.4681
X4.016Y-1.4205
X4.0294Y-2.3559
X4.0534Y-2.9894
X4.0649Y-2.2949
X4.166Y-2.9862
X4.1775Y-1.9787
X4.1983Y-2.1563
X4.2483Y-3.1803
X4.2527Y-1.3906
X4.2527Y-1.8445
X4.2629Y-3.9382
X4.2716Y-2.8138
X4.2731Y-2.9685
X4.279Y-2.4067
X4.3027Y-2.5843
X4.3267Y-3.9067
X4.3279Y-1.5878
X4.3412Y-2.4461
X4.342Y-3.172
X4.3432Y-1.5043
X4.3436Y-3.0673
X4.3554Y-1.8295
X4.3794Y-1.7528
X4.3818Y-2.1622
X4.3826Y-2.365
X4.4223Y-1.3567
X4.5464Y-3.7874
X4.6015Y-2.8949
X4.6838Y-2.865
X4.6853Y-2.1189
X4.7188Y-3.8488
X4.7452Y-2.3642
X4.7735Y-2.2508
X4.7759Y-1.7441
X4.7775Y-2.5161
X4.8078Y-3.8594
X4.8393Y-1.4339
X4.9129Y-1.8713
X4.9145Y-2.1618
X4.92Y-1.8083
X4.9231Y-2.613
X4.9448Y-2.2917
X4.9546Y-3.7177
X4.955Y-1.6543
X4.9586Y-3.6591
X4.9602Y-2.1145
X4.9684Y-2.0437
X4.992Y-1.7634
X5.0145Y-2.6114
X5.0192Y-2.4413
X5.0345Y-3.2728
X5.0365Y-1.7744
X5.0507Y-2.1988
X5.0859Y-2.1636
X5.0885Y-2.4323
X5.1059Y-2.0393
X5.1149Y-3.8843
X5.1235Y-1.948
X5.1237Y-2.4305
X5.1339Y-1.9777
X5.1366Y-2.3566
X5.1373Y-3.5398
X5.142Y-1.5331
X5.1527Y-2.5102
X5.16Y-1.4078
X5.1909Y-2.4123
X5.1995Y-1.535
X5.2003Y-1.9055
X5.2235Y-1.8161
X5.2316Y-1.9024
X5.2326Y-3.085
X5.2483Y-2.2689
X5.259Y-2.4071
X5.2609Y-1.8815
X5.2704Y-2.2965
X5.281Y-2.4669
X5.2861Y-3.4421
X5.2912Y-2.3398
X5.3397Y-1.6071
X5.3968Y-1.8811
X5.444Y-3.7031
X5.5026Y-2.0205
X5.5026Y-2.0555
X5.5026Y-2.087
X5.5042Y-1.5134
X5.5499Y-2.0138
X5.5546Y-2.0449
X5.5558Y-2.0787
X5.5625Y-1.9382
X6.0385Y-2.0311
X6.0806Y-2.1744
X6.1385Y-2.1819
X6.1456Y-1.9917
X6.1592Y-2.0226
X6.1629Y-2.2909
X6.1629Y-2.3496
X6.192Y-2.2429
X6.2251Y-2.1992
X6.2353Y-1.4213
X6.2448Y-1.8803
X6.2773Y-1.8738
X6.279Y-1.5638
X6.2834Y-1.8429
X6.2905Y-2.3776
X6.2928Y-3.6453
X6.3334Y-2.7209
X6.3452Y-1.2378
X6.3578Y-3.5358
X6.3877Y-2.2736
X6.4187Y-2.2887
X6.42Y-1.6161
X6.438Y-2.2638
X6.4381Y-3.6386
X6.4538Y-1.8094
X6.492Y-1.4236
X6.5007Y-2.2043
X6.5019Y-1.835
X6.5456Y-2.2295
X6.5503Y-1.5413
X6.5774Y-2.0967
X6.5787Y-2.0481
X6.5933Y-2.1249
X6.5952Y-3.339
X6.598Y-2.073
X6.5994Y-2.0244
X6.6621Y-4.1606
X6.6649Y-1.4551
X6.6834Y-3.6945
X6.7456Y-1.5583
X6.7578Y-4.0232
X6.766Y-3.9287
X6.7881Y-2.8634
X6.846Y-1.8173
X6.8491Y-4.024
X6.8731Y-2.0657
X6.8731Y-2.5618
X6.8767Y-1.6972
X6.9212Y-1.748
X6.9235Y-1.4063
X6.9464Y-1.076
X6.9546Y-3.0736
X6.9826Y-1.6256
X7.0479Y-2.3638
X7.1026Y-1.6335
X7.2637Y-2.9299
X7.3031Y-2.0992
X7.3153Y-1.5012
X7.3247Y-2.2394
X7.3302Y-1.6799
X7.3353Y-2.9311
X7.3653Y-2.2256
X7.4558Y-2.3177
X7.4908Y-2.6185
X7.5546Y-3.9063
X7.6075Y-2.2001
X7.6217Y-2.1054
X7.6264Y-2.834
X7.6621Y-1.3154
X7.6767Y-2.0433
X7.6853Y-1.7984
X7.6944Y-1.5199
X7.6952Y-2.5372
X7.7239Y-3.7834
X7.7728Y-2.3157
X7.7728Y-2.3496
X7.7728Y-2.3811
X7.7728Y-2.4138
X7.7798Y-2.4701
X7.7842Y-2.0898
X7.8003Y-3.6579
X8.0054Y-3.0273
X8.0101Y-3.1012
X8.0597Y-2.2122
X8.0712Y-2.9122
X8.0968Y-3.3039
X8.1243Y-1.422
X8.131Y-2.8098
X8.1444Y-2.4374
X8.1908Y-1.4862
X8.1928Y-3.1244
X8.2113Y-2.95
X8.2275Y-3.211
X8.2676Y-2.1606
X8.3806Y-1.4854
X8.3873Y-2.4048
X8.3905Y-3.6272
X8.4125Y-3.0697
X8.4196Y-1.2157
X8.4275Y-1.3929
X8.4357Y-2.4583
X8.4471Y-1.7041
X8.4483Y-1.9476
X8.4511Y-2.2819
X8.4515Y-2.9634
X8.4542Y-2.3197
X8.4542Y-2.3728
X8.4582Y-1.5067
X8.5239Y-2.3969
X8.5649Y-1.9583
X8.5905Y-1.4917
X8.5948Y-2.315
X8.5952Y-2.278
X8.5995Y-2.3614
X8.7518Y-2.2316
X8.8125Y-2.7783
X8.8184Y-2.1413
X8.8227Y-1.3189
X8.8243Y-2.0299
X8.8302Y-2.2339
X8.8385Y-2.8685
X8.8625Y-1.522
X8.92Y-2.9331
X9.009Y-2.3866
X9.0318Y-2.2791
X9.0377Y-2.3142
X9.1306Y-1.2626
X9.1554Y-1.5083
X9.1719Y-2.961
X9.1731Y-2.3421
X9.1877Y-1.814
X9.2082Y-2.0709
X9.2129Y-2.3268
X9.2416Y-2.5332
X9.3205Y-2.278
X9.5684Y-2.9409
X9.5758Y-1.4458
X9.5814Y-2.8594
X9.633Y-2.387
X9.6566Y-1.4917
X9.6924Y-2.9161
X9.8172Y-2.1567
X9.8468Y-2.2079
X9.8991Y-3.1248
X9.9798Y-2.2295
X10.009Y-2.637
X10.018Y-2.9591
X10.1723Y-1.8063
X10.1759Y-2.2654
X10.2566Y-2.2374
X10.282Y-2.8469
X10.2873Y-1.8449
X10.2912Y-1.7512
X10.2916Y-1.324
X10.3062Y-2.3173
X10.3298Y-1.637
X10.3334Y-3.0571
X10.3428Y-2.8161
X10.3814Y-3.1138
X10.393Y-1.5402
X10.4507Y-2.8941
X10.5625Y-2.9366
X10.6003Y-1.4551
X10.6755Y-2.0021
X10.6834Y-1.8823
X10.7822Y-1.7413
X11.0279Y-2.4799
X11.0408Y-2.8118
X11.0412Y-1.3181
X11.0507Y-2.278
X11.0656Y-1.6689
X11.0656Y-2.389
X11.0802Y-2.6193
X11.0818Y-1.5835
X11.1074Y-3.1976
X11.159Y-1.7602
X11.1861Y-2.576
T2
X1.3507Y-1.5691
X1.3822Y-3.0524
X1.392Y-2.3142
X6.9515Y-1.8012
X7.1452Y-3.2484
X7.3412Y-3.7577
X7.3609Y-1.5862
X7.4109Y-3.1862
X7.4156Y-1.7102
X7.4869Y-3.2429
X7.5566Y-2.848
X7.6062Y-1.3394
X7.6227Y-2.9937
X7.6381Y-3.4394
X7.6574Y-2.8283
X7.6968Y-2.1457
X7.8326Y-2.839
X7.8637Y-2.5583
X8.043Y-2.7575
X8.0956Y-3.6657
X8.2306Y-3.2846
X8.3865Y-3.4929
X8.4523Y-2.8134
X8.5672Y-2.4335
X8.5853Y-1.6795
X8.6314Y-2.1949
X8.6318Y-1.4874
X8.7601Y-1.8925
X8.768Y-2.6669
X8.8121Y-1.3705
X8.8255Y-1.7748
X8.9688Y-2.135
X9.0023Y-1.5055
X9.0078Y-1.3583
X9.0247Y-2.8421
X9.0826Y-1.9984
X9.0853Y-2.3626
X9.0865Y-1.2012
X9.1259Y-2.7602
X9.1763Y-2.2126
X9.2302Y-2.4638
X9.2338Y-1.3681
X9.333Y-2.5445
X9.3877Y-1.6413
X9.5676Y-2.7811
X9.596Y-1.4882
X9.8168Y-2.263
X9.8168Y-2.7299
X9.8227Y-2.3583
X9.8534Y-2.935
X9.8668Y-1.985
X9.9684Y-1.5551
X9.9873Y-2.3055
X10.0664Y-2.6961
X10.2534Y-2.1559
X10.3094Y-2.2748
X10.3137Y-2.9787
X10.3247Y-2.4244
X10.3468Y-1.8571
X10.6145Y-1.6449
X10.6219Y-1.422
X10.6342Y-2.4618
X10.6397Y-2.3437
X10.6727Y-3.0154
X10.6932Y-1.9205
X10.6999Y-1.9776
X10.7031Y-1.6646
X10.7818Y-2.9539
X10.7916Y-2.7177
X10.8113Y-1.1331
X10.8877Y-2.7622
X11.066Y-2.9685
X11.0873Y-1.8028
X11.0991Y-1.5449
X11.1058Y-2.2295
T5
X5.155Y-2.6382
X5.255Y-2.6382
X5.355Y-2.6382
X5.455Y-2.6382
X6.2286Y-2.637
X6.3286Y-2.637
X6.4286Y-2.637
X6.5286Y-2.637
T6
X5.6073Y-2.4914
X5.6073Y-2.7473
X6.0747Y-2.4906
X6.0747Y-2.7465
T3
G00X5.1349Y-1.1675
M15
G01X5.1349Y-1.1439
M16
G05
G00X5.1349Y-1.3419
M15
G01X5.1349Y-1.2986
M16
G05
G00X5.4751Y-1.1675
M15
G01X5.4751Y-1.1439
M16
G05
G00X5.4751Y-1.3419
M15
G01X5.4751Y-1.2986
M16
G05
G00X6.209Y-1.1681
M15
G01X6.209Y-1.1445
M16
G05
G00X6.209Y-1.3425
M15
G01X6.209Y-1.2992
M16
G05
G00X6.5491Y-1.1681
M15
G01X6.5491Y-1.1445
M16
G05
G00X6.5491Y-1.3425
M15
G01X6.5491Y-1.2992
M16
G05
T4
G00X5.2409Y-2.8335
M15
G01X5.2252Y-2.8335
M16
G05
G00X5.2843Y-3.0146
M15
G01X5.2685Y-3.0146
M16
G05
G00X5.4417Y-3.0146
M15
G01X5.426Y-3.0146
M16
G05
G00X5.5598Y-3.0146
M15
G01X5.5441Y-3.0146
M16
G05
G00X6.1192Y-2.8339
M15
G01X6.1349Y-2.8339
M16
G05
G00X6.2373Y-2.8339
M15
G01X6.2531Y-2.8339
M16
G05
G00X6.3948Y-2.8339
M15
G01X6.4105Y-2.8339
M16
G05
G00X6.4381Y-3.015
M15
G01X6.4538Y-3.015
M16
G05
T0
M30
